Coordinates
version=1
nRows=13
nColumns=36
inDegrees=yes

Units are S.I. units (second, meters, Newtons, ...)
If the header above contains a line with 'inDegrees', this indicates whether rotational values are in degrees (yes) or radians (no).

endheader
time	pelvis_tilt	pelvis_list	pelvis_rotation	pelvis_tx	pelvis_ty	pelvis_tz	hip_flexion_r	hip_adduction_r	hip_rotation_r	knee_angle_r	knee_angle_r_beta	ankle_angle_r	subtalar_angle_r	mtp_angle_r	hip_flexion_l	hip_adduction_l	hip_rotation_l	knee_angle_l	knee_angle_l_beta	ankle_angle_l	subtalar_angle_l	mtp_angle_l	lumbar_extension	lumbar_bending	lumbar_rotation	arm_flex_r	arm_add_r	arm_rot_r	elbow_flex_r	pro_sup_r	arm_flex_l	arm_add_l	arm_rot_l	elbow_flex_l	pro_sup_l
      0.37000000	     -7.36003978	     -1.11770065	     -3.21722933	      0.36308422	      0.90812726	     -0.19048435	      6.45409943	      6.42411370	      4.43214808	     10.14020769	      0.17698001	     12.76426961	      3.04312086	     -6.35921815	     35.85098616	     -1.75738056	     -2.05743087	     42.67717154	      0.74485716	      4.06646402	     -9.97386651	     -6.35921815	     -5.49593209	     10.56579566	      5.14593751	      9.44528779	    -23.53467146	      5.28627735	     41.04749194	    105.66643771	     -7.71776976	    -10.86535970	     -3.93964743	     41.20173988	    100.66423592
      0.38000000	     -7.36531442	     -1.09607251	     -3.73498502	      0.37259754	      0.90760471	     -0.18990863	      5.69191692	      6.43886914	      4.65253569	      9.96629641	      0.17394469	     12.96856387	      3.22138071	     -6.37344549	     35.78406345	     -1.65288840	     -1.64443022	     39.09048315	      0.68225764	      4.04972377	     -9.48805767	     -6.37344549	     -5.48806561	     10.51624414	      5.36485208	      9.77608559	    -23.55225538	      5.53808955	     41.39632149	    105.67609529	     -7.54059955	    -10.75215027	     -4.16117482	     41.06063991	    100.66048447
      0.39000000	     -7.28887654	     -1.09573945	     -4.25924473	      0.38220481	      0.90707427	     -0.18936134	      4.82519883	      6.44774599	      4.84994898	      9.76053479	      0.17035347	     13.29134257	      3.48614594	     -6.39024127	     35.52804194	     -1.59781979	     -1.26771763	     35.39377839	      0.61773797	      3.96378808	     -9.19863463	     -6.39024127	     -5.58823969	     10.48616582	      5.55005901	     10.15229914	    -23.59125990	      5.89674998	     41.73193838	    105.69281075	     -7.33795441	    -10.60743432	     -4.42636405	     40.87308060	    100.65484341
      0.40000000	     -7.24440039	     -1.10277439	     -4.76037010	      0.39186389	      0.90638073	     -0.18888147	      4.04192160	      6.42236355	      4.83563367	      9.65710398	      0.16854826	     13.77666029	      4.22580036	     -6.46679079	     35.21537930	     -1.49759357	     -0.67523899	     31.57297230	      0.55105232	      3.58021342	     -9.52128674	     -6.46679079	     -5.62573235	     10.44068473	      5.49972232	     10.75519673	    -23.64105812	      6.83055144	     41.84171201	    105.60434295	     -7.28884243	    -10.42248653	     -4.99756851	     40.79645798	    100.77492716
      0.41000000	     -7.26172002	     -1.15946777	     -5.26457543	      0.40157853	      0.90548631	     -0.18830153	      3.29732823	      6.47825858	      5.05703601	      9.51788598	      0.16611845	     14.03872530	      4.49258346	     -6.49098592	     34.92257816	     -1.53994572	     -0.16094075	     27.78759522	      0.48498503	      3.74539693	     -9.21663419	     -6.49098592	     -5.59724844	     10.43344598	      5.59356903	     11.04965890	    -23.62425535	      7.17146101	     42.18339684	    105.60593884	     -7.12502416	    -10.32183957	     -5.20092913	     40.64005859	    100.79164186
      0.42000000	     -7.41190977	     -1.24294938	     -5.78280553	      0.41131938	      0.90429489	     -0.18771426	      2.72344829	      6.56218938	      5.19510562	      9.41527608	      0.16432757	     14.28080515	      4.74795460	     -6.51110305	     34.73783939	     -1.64139693	      0.44524722	     24.05838450	      0.41989802	      3.92881256	     -9.03629184	     -6.51110305	     -5.42857282	     10.44721530	      5.68259682	     11.32832914	    -23.60882685	      7.50651510	     42.50327303	    105.61893002	     -7.01499100	    -10.23000746	     -5.33921896	     40.51065145	    100.80577220
      0.43000000	     -7.58276060	     -1.35202183	     -6.28109315	      0.42109122	      0.90299923	     -0.18716734	      2.16380673	      6.66284399	      5.35438944	      9.32341567	      0.16272430	     14.50359892	      5.11188571	     -6.53929933	     34.54937409	     -1.80211008	      1.06540086	     20.39912695	      0.35603193	      4.01218225	     -9.10765732	     -6.53929933	     -5.22039310	     10.48751333	      5.69472367	     11.60078697	    -23.58326520	      7.92007128	     42.80146627	    105.62275490	     -6.91772540	    -10.17170690	     -5.43591723	     40.35387893	    100.83191148
      0.44000000	     -7.80947312	     -1.49428511	     -6.75549062	      0.43091252	      0.90153792	     -0.18662880	      1.65946836	      6.80504228	      5.49616260	      9.24408615	      0.16133974	     14.70563915	      5.34632222	     -6.56117036	     34.43092227	     -2.04519567	      1.60572539	     16.90720908	      0.29508647	      4.17443411	     -9.02514602	     -6.56117036	     -4.95052190	     10.54860587	      5.70140356	     11.79556443	    -23.54226782	      8.24979278	     43.08528513	    105.62950898	     -6.80800582	    -10.13780588	     -5.45808101	     40.20725004	    100.84791817
      0.45000000	     -8.18522602	     -1.65049068	     -7.23331759	      0.44072144	      0.89979751	     -0.18607507	      1.36014550	      6.98923307	      5.71182345	      9.26789230	      0.16175524	     14.76889782	      5.52071704	     -6.57151914	     34.53893583	     -2.38545428	      1.95937095	     13.71836268	      0.23943060	      4.42952324	     -8.73230110	     -6.57151914	     -4.52381162	     10.62043592	      5.65421355	     11.91157197	    -23.41717898	      8.46823356	     43.37904766	    105.64731338	     -6.74517131	    -10.09721496	     -5.42083745	     40.10949694	    100.85447412
      0.46000000	     -8.53957537	     -1.88397091	     -7.65813167	      0.45068749	      0.89801151	     -0.18562199	      0.98395659	      7.25241976	      5.80470420	      9.22055303	      0.16092901	     14.87795188	      5.60926823	     -6.57810068	     34.72677895	     -2.81418433	      1.95060384	     10.92578025	      0.19069084	      4.68139846	     -8.55582720	     -6.57810068	     -4.08899691	     10.78769538	      5.54083591	     11.99738708	    -23.30458583	      8.63786575	     43.66699546	    105.66594934	     -6.72134772	    -10.07444055	     -5.35661344	     39.99143705	    100.85565879
      0.47000000	     -8.79284831	     -2.01256601	     -8.07064403	      0.46075974	      0.89636145	     -0.18519612	      0.50579660	      7.38069710	      6.00361051	      9.20786343	      0.16070753	     14.99830774	      5.68966396	     -6.58557951	     34.74209103	     -3.10979632	      2.03731335	      8.25570584	      0.14408925	      4.73994434	     -8.30003675	     -6.58557951	     -3.79427886	     10.78196615	      5.44467301	     12.03427993	    -23.21234452	      8.86442529	     43.96946794	    105.68641260	     -6.59374223	    -10.11201578	     -5.26611271	     39.83197983	    100.85233821
      0.48000000	     -8.80489308	     -2.12906019	     -8.41343091	      0.47098734	      0.89506413	     -0.18489476	     -0.30365419	      7.45032680	      6.21025732	      9.07713451	      0.15842588	     15.22482001	      5.68227632	     -6.60312305	     34.55884917	     -3.32976720	      1.97744963	      5.98003843	      0.10437136	      4.39040828	     -8.35329765	     -6.60312305	     -3.79456658	     10.67513887	      5.40208437	     12.00142108	    -23.20466858	      9.21282497	     44.29978255	    105.68348641	     -6.26807476	    -10.17366549	     -4.98683615	     39.57384642	    100.84994887
      0.49000000	     -9.04358474	     -2.26425447	     -8.75268611	      0.48126768	      0.89333581	     -0.18458319	     -0.78724879	      7.56561457	      6.38112903	      9.12809986	      0.15931540	     15.30966006	      5.69375255	     -6.61203649	     34.78418473	     -3.59102120	      1.82889871	      4.37184054	      0.07630301	      4.45438793	     -8.39025991	     -6.61203649	     -3.49311394	     10.62531977	      5.18694622	     11.93514593	    -23.04931436	      9.36809320	     44.62891957	    105.68376262	     -6.15337795	    -10.23435289	     -4.84171322	     39.43387276	    100.84462473
